<svg id="svg" version="1.1" xmlns="http://www.w3.org/2000/svg" xmlns:xlink="http://www.w3.org/1999/xlink" width="400" height="400" viewBox="0, 0, 400,400"><g id="svgg"><path id="path0" d="M86.719 292.364 C 86.719 294.112,91.929 307.710,94.756 313.340 C 101.136 326.046,101.548 326.512,140.904 365.599 L 175.544 400.000 250.062 400.000 L 324.580 400.000 327.120 392.090 C 340.041 351.850,343.215 341.797,343.000 341.797 C 342.863 341.797,331.289 346.879,317.279 353.090 L 291.808 364.384 190.142 328.538 C 78.049 289.016,86.719 292.048,86.719 292.364 " stroke="none" fill="#53dccb" fill-rule="evenodd"></path><path id="path1" d="M209.180 0.547 C 208.320 0.819,194.785 9.556,179.102 19.964 C 163.418 30.371,135.688 48.726,117.480 60.752 L 84.374 82.617 84.498 181.055 C 84.611 271.235,84.677 279.853,85.283 283.789 C 86.131 289.291,86.804 291.844,87.517 292.262 C 87.830 292.445,133.923 308.747,189.946 328.489 L 291.805 364.383 316.899 353.247 C 330.700 347.123,342.230 342.015,342.521 341.897 C 342.855 341.761,295.697 294.330,213.846 212.478 L 84.642 83.275 176.794 83.129 C 275.235 82.973,281.962 83.054,288.978 84.489 C 291.402 84.985,293.441 85.335,293.509 85.267 C 293.576 85.200,291.358 78.703,288.579 70.830 L 283.526 56.515 259.678 32.848 C 246.562 19.830,234.668 8.245,233.247 7.102 C 226.228 1.457,215.519 -1.460,209.180 0.547 " stroke="none" fill="#04d3bb" fill-rule="evenodd"></path><path id="path2" d="M254.199 83.105 C 257.261 83.171,262.271 83.171,265.332 83.105 C 268.394 83.039,265.889 82.985,259.766 82.985 C 253.643 82.985,251.138 83.039,254.199 83.105 M293.490 85.715 C 293.627 86.072,309.929 132.270,329.717 188.377 L 365.695 290.389 363.810 294.706 C 362.773 297.081,357.676 308.604,352.482 320.313 C 347.289 332.021,343.098 341.660,343.168 341.732 C 343.238 341.804,354.955 338.137,369.206 333.582 C 383.457 329.028,395.952 325.051,396.973 324.745 L 398.828 324.188 398.828 247.812 L 398.828 171.436 366.113 138.602 C 348.120 120.544,332.168 104.759,330.664 103.525 C 322.645 96.946,310.617 90.593,299.362 86.992 C 292.763 84.880,293.207 84.977,293.490 85.715 " stroke="none" fill="#04a3e3" fill-rule="evenodd"></path><path id="path3" d="M213.672 212.295 C 284.677 283.306,342.861 341.405,342.969 341.403 C 343.076 341.401,348.239 329.931,354.442 315.915 L 365.720 290.430 365.152 288.867 C 364.840 288.008,348.604 241.976,329.071 186.575 C 296.909 95.352,293.466 85.810,292.597 85.480 C 292.069 85.279,289.695 84.740,287.322 84.281 L 283.008 83.448 183.789 83.316 L 84.570 83.185 213.672 212.295 " stroke="none" fill="#0484cc" fill-rule="evenodd"></path><path id="path4" d="M56.062 125.300 C 40.598 148.661,22.184 176.458,15.142 187.072 C -0.096 210.039,-0.237 210.381,1.962 218.980 C 4.229 227.844,5.038 228.837,33.263 257.422 L 57.755 282.227 71.947 287.207 C 88.546 293.032,87.192 292.759,86.489 290.137 C 84.570 282.979,84.638 286.520,84.401 181.160 L 84.180 82.827 56.062 125.300 M276.855 83.479 C 277.339 83.572,278.130 83.572,278.613 83.479 C 279.097 83.386,278.701 83.310,277.734 83.310 C 276.768 83.310,276.372 83.386,276.855 83.479 " stroke="none" fill="#0484c4" fill-rule="evenodd"></path></g></svg>